inDegrees=no
num_controls=7
num_derivatives=13
num_iterations=198
num_multipliers=7
num_parameters=0
num_slacks=7
num_states=26
objective=5.991407
objective_accelerations=0.757965
objective_balance=0.021599
objective_effort=0.516958
objective_height=4.578321
objective_ligament=0.116563
solver_duration=1696.933521
status=Solve_Succeeded
success=true
DataType=double
version=3
OpenSimVersion=4.4-2022-07-23-0e9fedc
endheader
time	/jointset/ground_pelvis/pelvis_tilt/value	/jointset/ground_pelvis/pelvis_tx/value	/jointset/ground_pelvis/pelvis_ty/value	/jointset/hip_r/hip_flexion_r/value	/jointset/hip_r/hip_adduction_r/value	/jointset/hip_r/hip_rotation_r/value	/jointset/back/lumbar_extension/value	/jointset/patellofemoral_r/patellar_flexion_r/value	/jointset/knee_r/knee_flexion_r/value	/jointset/knee_r/knee_adduction_r/value	/jointset/knee_r/knee_rotation_r/value	/jointset/ankle_r/ankle_angle_r/value	/jointset/subtalar_r/subtalar_angle_r/value	/jointset/ground_pelvis/pelvis_tilt/speed	/jointset/ground_pelvis/pelvis_tx/speed	/jointset/ground_pelvis/pelvis_ty/speed	/jointset/hip_r/hip_flexion_r/speed	/jointset/hip_r/hip_adduction_r/speed	/jointset/hip_r/hip_rotation_r/speed	/jointset/back/lumbar_extension/speed	/jointset/patellofemoral_r/patellar_flexion_r/speed	/jointset/knee_r/knee_flexion_r/speed	/jointset/knee_r/knee_adduction_r/speed	/jointset/knee_r/knee_rotation_r/speed	/jointset/ankle_r/ankle_angle_r/speed	/jointset/subtalar_r/subtalar_angle_r/speed	/forceset/tau_hip_flexion_r	/forceset/tau_hip_adduction_r	/forceset/tau_hip_rotation_r	/forceset/tau_knee_flexion_r	/forceset/tau_ankle_angle_r	/forceset/tau_subtalar_angle_r	/forceset/tau_lumbar_extension	lambda_cid13_p0	lambda_cid14_p0	lambda_cid14_p1	lambda_cid14_p2	lambda_cid14_p3	lambda_cid14_p4	lambda_cid14_p5	/jointset/ground_pelvis/pelvis_tilt/accel	/jointset/ground_pelvis/pelvis_tx/accel	/jointset/ground_pelvis/pelvis_ty/accel	/jointset/hip_r/hip_flexion_r/accel	/jointset/hip_r/hip_adduction_r/accel	/jointset/hip_r/hip_rotation_r/accel	/jointset/back/lumbar_extension/accel	/jointset/patellofemoral_r/patellar_flexion_r/accel	/jointset/knee_r/knee_flexion_r/accel	/jointset/knee_r/knee_adduction_r/accel	/jointset/knee_r/knee_rotation_r/accel	/jointset/ankle_r/ankle_angle_r/accel	/jointset/subtalar_r/subtalar_angle_r/accel	gamma_cid13_p0	gamma_cid14_p0	gamma_cid14_p1	gamma_cid14_p2	gamma_cid14_p3	gamma_cid14_p4	gamma_cid14_p5
1	-0.2837637761473362	-0.02615833550248949	0.5764365364141513	1.622370426650577	-0.242664052966325	-0.04981169339964599	-0.7853969832374166	1.653555017224035	1.653555017224028	-0.1745329251994329	0.1745328558022803	0.4362112661155618	0.1666215234387351	0.06937145834013368	0.004015429613540324	0.0156908460253268	-0.09946390545288741	-0.001043021314262758	-0.004099494860253656	4.088360910037345e-05	-0.01649340504316516	-0.01649340504316553	0.001356305751650223	-0.0003273761018410512	0.01378642280788675	0.005020696162058126	-0.3725216064841713	0.01060292277890088	0.003815968821574441	-0.48435436523959	-0.01654672646741279	0.009780010046131429	0.38179043217018	-0.03933143759586279	-57.72389999955854	-8.639002113680062	4.973997196247272	9.890045872886716	-788.2673093742856	76.69136715313168	1.252320125352841	0.09126451134488778	2.154008581558785	-6.22748173754578	0.2338389397560625	-1.23051992743103	-0.01142127265735304	-5.619960252090585	-5.619960252090586	0.2200226088849162	-0.05541487984536176	-0.7783400033137334	0.08282253942490367	1.359653107528355e-09	1.407147857411969e-09	3.240975390558648e-09	1.133239686210462e-08	-7.702791963434187e-10	-5.287673589682471e-09	8.298452974135526e-09
1.01	-0.2830079891660458	-0.02611353553936237	0.5767010321407636	1.621065047544551	-0.2426626209920555	-0.04991114932835288	-0.7853966081298741	1.653109485018623	1.65310948501862	-0.1745055472111593	0.1745262948783629	0.4363103550904178	0.1666761869775657	0.08179299708261101	0.004956468310231505	0.03720771744566116	-0.1616261209036074	0.001324350623437055	-0.01570735169915371	1.894480146021165e-05	-0.07260388260648867	-0.07260388260648988	0.004210348800775082	-0.0009754675386329472	0.00604173741011879	0.005905284471263099	-0.3716389354024755	0.01037866703847617	0.003931265654675695	-0.4850662330311515	-0.01536389000442413	0.009768071635502949	0.3813144918293194	-0.03933029841719012	-57.32378741052853	-8.581788027494502	4.973623010961422	9.465735137284295	-788.0879043293669	76.87805645015206	1.238130398883513	0.0973088977964084	2.150436914804486	-6.212721638655391	0.2374298047633722	-1.113268086172526	0.0001408506011091486	-5.605219006419651	-5.605219006419786	0.3316772982045646	-0.06809936062223111	-0.7709781997280384	0.09027371198972559	2.552379452522434e-09	3.52248385090418e-09	2.08065750678973e-08	2.129251266278593e-08	-2.214529526569617e-09	-1.109011472381579e-08	3.376770217578152e-08
1.02	-0.2821277748672934	-0.02605896811947535	0.577180678680086	1.619137620246049	-0.2426376666016131	-0.05012415373024685	-0.7853969082031643	1.652103122537985	1.652103122537989	-0.1744469097918207	0.1745135344230489	0.4363323081329393	0.1667394957465527	0.09425692183262085	0.00596892096552072	0.05872100856734448	-0.2238735439471397	0.003661461920585086	-0.0268091895001749	-9.415258943146378e-05	-0.1286594600884692	-0.1286594600884713	0.007607677661030396	-0.001567282376469047	-0.001640763656437367	0.006749742193325057	-0.3707562643208067	0.01015441129807726	0.004046562487789213	-0.4857781008227116	-0.01418105354142263	0.009756133224929022	0.3808385514884343	-0.03933877729018335	-56.93035372704249	-8.524787497598872	4.97219070254566	9.047661681829622	-788.0080252688786	77.07744814159706	1.260797326859333	0.1055473030645072	2.153292521828575	-6.244523256108231	0.2277868116456719	-1.129316119855299	-0.02965298930676301	-5.608980235821979	-5.608980235821991	0.3286797711110098	-0.04415956005412509	-0.7659031370713546	0.07479642199624502	9.50483570387616e-09	1.5274931526486e-08	5.933032753082596e-08	6.781064685411294e-08	-1.293100087497516e-08	-1.957522396137461e-08	1.335896617627796e-07
1.03	-0.2811228820846524	-0.02599402922201328	0.5778753363795162	1.616587856681989	-0.2425894640297332	-0.05044560395484844	-0.7853981633974483	1.650536412311113	1.650536412311124	-0.174351530814418	0.1744952272602845	0.4362772694598636	0.1668108583350713	0.1067113895315432	0.007019796716360114	0.0801997457467496	-0.2860378382376627	0.005979507243912681	-0.03740317291794903	-0.0001095477087820718	-0.1846810442293624	-0.1846810442293632	0.01154927003237892	-0.002082971393439164	-0.009403206550212106	0.007502938833863577	-0.3704374671983214	0.01024451226671747	0.004161056067187217	-0.4854728852606339	-0.01450349710566019	0.009819577537806668	0.380768581575904	-0.03936951927230456	-57.02079822285508	-8.499018663964488	4.952032835324455	9.202738499773318	-787.8203971759234	77.12003858385289	1.236239097001539	0.1049936256191548	2.143540811078302	-6.196178821875937	0.2338961133444812	-1.012781027992153	0.01966081577464888	-5.598519690421896	-5.598519690421722	0.4390679241330747	-0.05356442530183463	-0.7868493519146793	0.0726347879154346	1.651606470937645e-08	2.712571707637492e-08	9.806793869564852e-08	1.147018220494263e-07	-2.374208672356627e-08	-2.808770736325411e-08	2.341703224761593e-07
